<svg id="visual" viewBox="0 0 675 900" width="675" height="900" xmlns="http://www.w3.org/2000/svg" xmlns:xlink="http://www.w3.org/1999/xlink" version="1.1"><path d="M0 64L68 64L68 145L135 145L135 127L203 127L203 118L270 118L270 64L338 64L338 109L405 109L405 73L472 73L472 64L540 64L540 145L608 145L608 154L675 154L675 100L675 0L675 0L608 0L608 0L540 0L540 0L472 0L472 0L405 0L405 0L338 0L338 0L270 0L270 0L203 0L203 0L135 0L135 0L68 0L68 0L0 0Z" fill="#6d1829"></path><path d="M0 478L68 478L68 370L135 370L135 334L203 334L203 352L270 352L270 307L338 307L338 307L405 307L405 199L472 199L472 406L540 406L540 406L608 406L608 361L675 361L675 262L675 98L675 152L608 152L608 143L540 143L540 62L472 62L472 71L405 71L405 107L338 107L338 62L270 62L270 116L203 116L203 125L135 125L135 143L68 143L68 62L0 62Z" fill="#641526"></path><path d="M0 676L68 676L68 541L135 541L135 496L203 496L203 532L270 532L270 397L338 397L338 388L405 388L405 424L472 424L472 595L540 595L540 622L608 622L608 505L675 505L675 352L675 260L675 359L608 359L608 404L540 404L540 404L472 404L472 197L405 197L405 305L338 305L338 305L270 305L270 350L203 350L203 332L135 332L135 368L68 368L68 476L0 476Z" fill="#5b1222"></path><path d="M0 748L68 748L68 604L135 604L135 667L203 667L203 712L270 712L270 595L338 595L338 550L405 550L405 523L472 523L472 721L540 721L540 766L608 766L608 640L675 640L675 442L675 350L675 503L608 503L608 620L540 620L540 593L472 593L472 422L405 422L405 386L338 386L338 395L270 395L270 530L203 530L203 494L135 494L135 539L68 539L68 674L0 674Z" fill="#520f1f"></path><path d="M0 901L68 901L68 901L135 901L135 901L203 901L203 901L270 901L270 901L338 901L338 901L405 901L405 901L472 901L472 901L540 901L540 901L608 901L608 901L675 901L675 901L675 440L675 638L608 638L608 764L540 764L540 719L472 719L472 521L405 521L405 548L338 548L338 593L270 593L270 710L203 710L203 665L135 665L135 602L68 602L68 746L0 746Z" fill="#4a0c1b"></path></svg>