<svg viewBox="0 0 120 56" fill="none" xmlns="http://www.w3.org/2000/svg">
<g clip-path="url(#clip0_814_2615)">
<path d="M87.8265 35.4508C87.8265 33.6081 86.5866 32.4935 84.371 32.4935C83.4526 32.468 82.54 32.6501 81.6972 33.0268C81.384 33.4828 81.2416 34.0082 81.0449 34.8402C81.9507 34.4386 82.9268 34.2326 83.9128 34.2348C84.8913 34.2348 85.6729 34.6641 85.6729 35.8481C85.6729 37.1228 84.8964 38.0508 80.7188 40.5495C80.7197 41.045 80.7639 41.5394 80.8508 42.0268H87.7592C87.9514 41.461 88.0833 40.8753 88.1526 40.2801H82.2692C85.207 39.2508 87.8265 38.1708 87.8265 35.4508ZM105.427 35.4508C105.427 33.6081 104.19 32.4935 101.972 32.4935C101.054 32.4679 100.143 32.65 99.3008 33.0268C98.9876 33.4828 98.8426 34.0082 98.6485 34.8402C99.5542 34.4384 100.53 34.2323 101.516 34.2348C102.495 34.2348 103.277 34.6641 103.277 35.8481C103.277 37.1228 102.5 38.0508 98.3224 40.5495C98.3234 41.0449 98.3667 41.5392 98.4518 42.0268H105.363C105.555 41.4613 105.686 40.8755 105.754 40.2801H99.8728C102.811 39.2508 105.427 38.1708 105.427 35.4508ZM93.4614 36.1575C93.0119 36.4887 92.6102 36.8837 92.2681 37.3308C92.6116 37.7766 93.0131 38.1715 93.4614 38.5042C93.9097 38.1715 94.3112 37.7766 94.6546 37.3308C94.3126 36.8837 93.9108 36.4887 93.4614 36.1575ZM93.4329 32.4935C90.8238 32.4935 88.8696 34.0935 88.8696 36.7255C88.8696 40.1521 92.0637 42.1655 93.4329 42.1655C94.8022 42.1655 97.9962 40.1521 97.9962 36.7255C97.9962 34.1068 96.0394 32.4935 93.4329 32.4935ZM93.4329 41.3602C92.8454 41.3602 91.0205 40.1388 91.0205 36.8588C91.0205 35.2588 91.9342 34.2402 93.4329 34.2402C94.9316 34.2402 95.8453 35.2481 95.8453 36.8588C95.8453 40.1388 94.0179 41.3602 93.4329 41.3602ZM44.6134 42.1602L41.1786 40.2721C43.1225 39.5468 44.5435 38.1095 44.5435 36.0748C44.5435 33.3361 42.5479 31.9521 39.9802 31.9521C37.6196 31.9521 35.3496 33.5094 35.3496 36.5201C35.3496 39.0588 37.2288 40.5761 39.2891 41.6908L45.9128 45.2508C45.918 43.6828 45.7342 42.7842 44.6134 42.1655V42.1602ZM40.6144 39.9628L40.5057 39.9042C39.2555 39.2188 37.573 38.1708 37.573 36.2641C37.573 34.5175 38.6679 33.6988 39.9854 33.6988C41.4453 33.6988 42.3331 34.7655 42.3331 36.6135C42.3331 37.8961 41.6497 39.0135 40.6144 39.9682V39.9628ZM113.514 35.4455C113.514 33.6028 112.274 32.4882 110.058 32.4882C109.14 32.4627 108.227 32.6447 107.384 33.0215C107.071 33.4775 106.929 34.0028 106.732 34.8348C107.638 34.4333 108.614 34.2273 109.6 34.2295C110.578 34.2295 111.36 34.6588 111.36 35.8428C111.36 37.1175 110.584 38.0455 106.406 40.5441C106.407 41.0397 106.451 41.5341 106.538 42.0215H113.449C113.639 41.4552 113.77 40.8697 113.84 40.2748H107.956C110.894 39.2508 113.514 38.1708 113.514 35.4508V35.4455ZM45.5271 38.8748C45.5271 41.1041 46.3036 42.1655 47.339 42.1655C48.6177 42.1655 49.6375 41.0001 50.5978 38.5148V42.0322H52.684V34.6428C51.747 34.5628 50.8851 34.5095 49.9455 34.5095C47.3778 34.5095 45.5271 35.6108 45.5271 38.8748ZM48.4598 40.2855C47.9136 40.2855 47.6833 39.5335 47.6833 37.4641C47.6833 36.3975 48.2009 36.1308 49.6401 36.1308C50.018 36.1308 50.3208 36.1308 50.6133 36.1308C50.1474 37.5921 49.5288 40.2855 48.4598 40.2855ZM77.1908 38.0561V37.3308C77.191 36.431 77.1252 35.5325 76.9941 34.6428H74.9752C75.0399 35.5842 75.1046 36.3895 75.1046 37.3308V42.0322H77.1908C77.1908 39.4002 78.0113 36.4028 80.1907 36.7255C80.1808 35.9827 80.115 35.2418 79.994 34.5095C78.4203 34.6508 77.6438 36.0935 77.1986 38.0561H77.1908ZM66.2549 38.8748C66.2482 39.3492 66.296 39.8227 66.3973 40.2855H58.7486C57.7314 40.2855 57.0791 40.0428 57.0791 39.0775V36.3895H59.4915C59.6826 35.8235 59.8137 35.2379 59.8823 34.6428H57.0687C57.0687 33.8162 57.1386 33.0748 57.1956 32.2268C56.3527 32.4873 55.5895 32.9677 54.9799 33.6215V34.6428H53.7401C53.6674 35.2223 53.6242 35.8053 53.6106 36.3895H54.9799V39.2108C54.9799 41.1868 56.1395 42.0322 57.7314 42.0322H68.1367C69.4101 42.0322 70.3911 40.9654 71.3307 38.5201V42.0322H73.417V34.6428C72.48 34.5628 71.6051 34.5095 70.6784 34.5095C68.0978 34.5095 66.2549 35.6108 66.2549 38.8748ZM69.1875 40.2855C68.6388 40.2855 68.411 39.5335 68.411 37.4641C68.411 36.3975 68.9287 36.1308 70.3652 36.1308C70.7457 36.1308 71.0486 36.1308 71.3411 36.1308C70.8674 37.5921 70.2488 40.2855 69.1798 40.2855H69.1875Z" fill="#550065"/>
<path d="M105.621 29.3306C105.326 29.4053 105 29.4773 104.646 29.5466C104.21 29.6217 103.769 29.6555 103.328 29.6479C102.798 29.6463 102.271 29.5737 101.76 29.432C101.245 29.2946 100.76 29.0584 100.331 28.7359C99.8967 28.4025 99.5425 27.971 99.2954 27.4746C99.01 26.8813 98.8713 26.2245 98.8916 25.5626C98.878 24.9393 98.9908 24.3198 99.2229 23.7439C99.4305 23.2432 99.7466 22.7981 100.147 22.4426C100.559 22.0866 101.039 21.8224 101.555 21.6666C102.128 21.4877 102.724 21.3979 103.323 21.3999C103.713 21.3992 104.103 21.4394 104.485 21.5199C104.86 21.5999 105.238 21.6986 105.614 21.8106L105.448 23.5359C105.136 23.3535 104.803 23.2111 104.457 23.112C104.119 23.0196 103.771 22.9739 103.421 22.976C103.08 22.9702 102.741 23.0364 102.425 23.1706C102.138 23.2916 101.88 23.4733 101.666 23.704C101.453 23.9395 101.287 24.217 101.18 24.5199C101.061 24.8501 101.002 25.1999 101.006 25.552C101.001 25.9121 101.067 26.2697 101.2 26.6026C101.321 26.9052 101.503 27.1779 101.734 27.4026C101.967 27.6259 102.244 27.7959 102.546 27.9013C102.88 28.0164 103.23 28.074 103.582 28.0719C103.921 28.072 104.259 28.0318 104.589 27.952C104.901 27.8785 105.209 27.7814 105.508 27.6613L105.621 29.3306Z" fill="#550065"/>
<path d="M113.042 26.4802C113.053 26.9642 112.971 27.4457 112.798 27.8962C112.647 28.2751 112.41 28.6114 112.107 28.8775C111.792 29.1451 111.425 29.3413 111.031 29.4535C110.128 29.7024 109.177 29.7024 108.274 29.4535C107.881 29.3413 107.515 29.145 107.2 28.8775C106.896 28.6124 106.658 28.2758 106.506 27.8962C106.334 27.4457 106.251 26.9642 106.263 26.4802V21.5469H108.333V26.1335C108.333 26.3846 108.353 26.6353 108.393 26.8829C108.429 27.0993 108.5 27.3078 108.605 27.4989C108.7 27.6745 108.84 27.8201 109.009 27.9202C109.213 28.0219 109.436 28.0747 109.663 28.0747C109.889 28.0747 110.112 28.0219 110.316 27.9202C110.485 27.8201 110.625 27.6745 110.72 27.4989C110.825 27.3078 110.897 27.0993 110.932 26.8829C110.973 26.6353 110.993 26.3846 110.992 26.1335V21.5469H113.062L113.042 26.4802Z" fill="#550065"/>
<path d="M114.073 21.5469H116.532C117.722 21.5469 118.598 21.7576 119.159 22.1789C119.718 22.6029 120 23.2616 120 24.1602C120.017 24.5179 119.953 24.8748 119.813 25.2025C119.673 25.5303 119.46 25.8198 119.193 26.0482C118.653 26.5015 117.898 26.7282 116.93 26.7282H116.133V29.5122H114.062L114.073 21.5469ZM116.144 25.2215H116.677C116.844 25.2216 117.01 25.2047 117.174 25.1709C117.32 25.1402 117.457 25.0774 117.578 24.9868C117.695 24.8987 117.788 24.7813 117.849 24.6456C117.921 24.4824 117.956 24.3045 117.95 24.1255C117.956 23.9482 117.921 23.772 117.849 23.6109C117.787 23.4787 117.694 23.3649 117.578 23.2802C117.456 23.1941 117.318 23.1343 117.174 23.1042C117.01 23.0692 116.844 23.0521 116.677 23.0535H116.133L116.144 25.2215Z" fill="#550065"/>
<path d="M55.917 21.5469H58.0213L59.0075 27.6642H59.0308L60.0662 21.5469H62.6804L63.765 27.6642H63.7883L64.7951 21.5469H66.8011L65.0721 29.5122H62.4397L61.3371 23.3949H61.3138L60.3017 29.5122H57.6331L55.917 21.5469Z" fill="#550065"/>
<path d="M66.8937 25.528C66.8891 24.9432 66.9765 24.3614 67.1526 23.8054C67.3029 23.3227 67.5548 22.8802 67.8903 22.5094C68.2297 22.1475 68.6437 21.8686 69.1016 21.6934C70.1926 21.3112 71.3756 21.3112 72.4665 21.6934C72.9252 21.8686 73.34 22.1475 73.6805 22.5094C74.0141 22.8816 74.2657 23.3237 74.4182 23.8054C74.7495 24.9248 74.7495 26.1206 74.4182 27.2401C74.2663 27.7248 74.0127 28.1691 73.6753 28.5414C73.3349 28.9071 72.9179 29.1881 72.4562 29.3627C71.3737 29.7427 70.1996 29.7427 69.1171 29.3627C68.6573 29.1873 68.2421 28.9065 67.9032 28.5414C67.5652 28.1696 67.3114 27.7251 67.1603 27.2401C66.982 26.6881 66.892 26.1098 66.8937 25.528ZM69.0214 25.528C69.0211 25.8489 69.0541 26.169 69.1197 26.4827C69.1797 26.7702 69.2846 27.0459 69.4303 27.2987C69.5654 27.5289 69.7518 27.7227 69.9739 27.864C70.2182 28.0022 70.4924 28.0747 70.7711 28.0747C71.0498 28.0747 71.324 28.0022 71.5683 27.864C71.7905 27.7227 71.9768 27.5289 72.1119 27.2987C72.2577 27.0459 72.3626 26.7702 72.4225 26.4827C72.4882 26.169 72.5211 25.8489 72.5209 25.528C72.5219 25.2009 72.489 24.8746 72.4225 24.5547C72.3628 24.2721 72.2579 24.0017 72.1119 23.7547C71.9773 23.527 71.7907 23.3366 71.5683 23.2C71.323 23.0651 71.0492 22.9946 70.7711 22.9946C70.493 22.9946 70.2192 23.0651 69.9739 23.2C69.7516 23.3366 69.565 23.527 69.4303 23.7547C69.2844 24.0017 69.1794 24.2721 69.1197 24.5547C69.0533 24.8746 69.0203 25.2009 69.0214 25.528Z" fill="#550065"/>
<path d="M75.4225 21.5469H79.1006C79.426 21.5451 79.7504 21.5854 80.066 21.6669C80.3517 21.7388 80.6219 21.8645 80.8632 22.0376C81.087 22.2004 81.2705 22.415 81.399 22.6643C81.5343 22.94 81.601 23.2461 81.5932 23.5549C81.6123 24.0214 81.4843 24.4817 81.2282 24.8669C80.9511 25.2326 80.5531 25.4804 80.11 25.563V25.5869C80.2567 25.6236 80.3921 25.6979 80.5035 25.8029C80.6088 25.9111 80.6962 26.0364 80.7623 26.1736C80.8436 26.3393 80.912 26.5114 80.9668 26.6883C81.0315 26.8829 81.1091 27.1016 81.2075 27.3443L81.9607 29.5123H79.8098L79.3672 28.0749C79.2636 27.7309 79.1653 27.451 79.0747 27.2296C79 27.0379 78.8989 26.8583 78.7744 26.6963C78.6785 26.5749 78.5524 26.4827 78.4095 26.4296C78.25 26.3757 78.0828 26.3505 77.9151 26.3549H77.4828V29.5043H75.4121L75.4225 21.5469ZM77.4932 24.8562H78.0367C78.1998 24.8562 78.3706 24.8563 78.5544 24.8376C78.7213 24.8307 78.8858 24.7946 79.041 24.7309C79.1818 24.6751 79.3065 24.5833 79.4034 24.4643C79.5109 24.3096 79.5614 24.1205 79.5458 23.9309C79.5525 23.7704 79.508 23.6121 79.4189 23.4803C79.3328 23.3632 79.2187 23.2713 79.0876 23.2136C78.9356 23.1481 78.7752 23.1059 78.6114 23.0883C78.4216 23.0642 78.2305 23.0526 78.0393 23.0536H77.4958L77.4932 24.8562Z" fill="#550065"/>
<path d="M82.8457 21.5469H84.9164V27.9469H88.1079V29.5229H82.8457V21.5469Z" fill="#550065"/>
<path d="M88.8184 21.5466H91.6216C92.2429 21.5421 92.863 21.6028 93.4723 21.7279C93.9918 21.8321 94.484 22.0484 94.9166 22.3626C95.3296 22.6749 95.6547 23.0946 95.8588 23.5787C96.1027 24.1857 96.2183 24.8393 96.1978 25.496C96.2158 26.1417 96.0984 26.7839 95.8536 27.3787C95.6414 27.8666 95.3139 28.292 94.9011 28.616C94.4681 28.9451 93.9737 29.1784 93.449 29.3013C92.8502 29.4466 92.2367 29.5173 91.6216 29.512H88.8184V21.5466ZM90.8891 27.9466H91.6863C92.4628 27.9466 93.0555 27.7466 93.4697 27.344C93.8838 26.9413 94.0909 26.3386 94.0909 25.5386C94.0909 24.7386 93.8786 24.1386 93.4593 23.7359C92.9659 23.3068 92.3309 23.09 91.6863 23.1306H90.8891V27.9466Z" fill="#550065"/>
<path fill-rule="evenodd" clip-rule="evenodd" d="M30.9756 21.5469V29.5122H33.3828V26.6375H35.1144L35.7304 24.8962H33.3828V23.2829H36.2999L36.9133 21.5469H30.9756Z" fill="#550065"/>
<path d="M40.0556 21.5469H37.6484V29.5149H40.0556V21.5469Z" fill="#550065"/>
<path fill-rule="evenodd" clip-rule="evenodd" d="M41.7119 21.5469V29.5122H44.1191V26.6375H45.8507L46.4668 24.8962H44.1191V23.2829H47.0362L47.6497 21.5469H41.7119Z" fill="#550065"/>
<path fill-rule="evenodd" clip-rule="evenodd" d="M54.5425 29.5122H52.112L51.7962 28.4456H49.0758L48.7756 29.5122H46.4072L49.2234 21.5469H51.7264L54.5425 29.5122ZM51.3976 26.9122L50.4373 23.5922L49.5055 26.9122H51.3976Z" fill="#550065"/>
<path d="M2.6427 9.7946C2.70673 9.82171 2.77538 9.83535 2.84459 9.83464C2.98189 9.83464 3.11356 9.77841 3.21065 9.67839C3.30773 9.57837 3.36227 9.44275 3.36227 9.30131C3.36132 9.20739 3.33632 9.1154 3.2898 9.03464C2.99306 9.2004 2.76357 9.4699 2.6427 9.7946ZM4.47786 10.6986L4.55552 10.1386C4.55968 10.1074 4.55416 10.0756 4.53975 10.0479C4.52534 10.0201 4.50277 9.99769 4.47528 9.98392L3.98089 9.73594C3.95367 9.72288 3.92322 9.71872 3.89361 9.72396C3.86401 9.7292 3.83667 9.74362 3.81524 9.7653L3.43215 10.1733C3.41107 10.196 3.39747 10.2249 3.39328 10.2561C3.3891 10.2872 3.39455 10.3189 3.40886 10.3466L3.6677 10.8453C3.68122 10.8732 3.70317 10.8958 3.73024 10.9098C3.75731 10.9237 3.78805 10.9282 3.81783 10.9226L4.3588 10.824C4.38894 10.8187 4.41668 10.8037 4.43807 10.7812C4.45945 10.7587 4.47338 10.7298 4.47786 10.6986ZM2.71776 10.6533C2.67405 10.654 2.63059 10.6603 2.58834 10.6719C2.66758 11.0071 2.85916 11.3028 3.12931 11.5066C3.19744 11.4147 3.23469 11.3023 3.23544 11.1866C3.23544 11.0451 3.1809 10.9095 3.08382 10.8095C2.98673 10.7095 2.85506 10.6533 2.71776 10.6533ZM25.3092 13.016C25.3374 11.7332 25.1795 10.4533 24.8407 9.21862C24.3995 7.78037 23.7912 6.40233 23.0288 5.11459L22.9641 4.99193C22.6864 4.59512 22.3418 4.25281 21.9469 3.98125C21.5556 3.70356 21.0855 3.56843 20.6113 3.59727C20.2882 3.6194 19.9778 3.73494 19.7157 3.9306C19.3899 4.18621 19.0073 4.35397 18.6027 4.41862C18.2434 4.45577 17.8806 4.42686 17.5311 4.33327C16.8471 4.11754 16.1916 3.81574 15.5794 3.43464C14.3448 2.71997 13.1748 1.88263 11.8548 1.4293C11.3578 1.23575 10.814 1.2096 10.3017 1.35462C9.48631 1.58929 8.70975 1.94886 7.99806 2.42129C7.40191 2.80203 6.83666 3.2319 6.30785 3.70664C5.76696 4.17189 5.2727 4.69178 4.83247 5.2586C5.64358 4.05235 6.67267 3.01842 7.86347 2.21328C8.59674 1.68482 9.41531 1.29474 10.281 1.06127C10.831 0.907949 11.4136 0.93499 11.9479 1.13861C12.7553 1.45165 13.5298 1.84834 14.2594 2.32259C17.3654 3.84526 20.0004 0.101276 22.9563 5.00528C21.0487 1.41594 20.9685 2.10395 19.7519 1.88262L19.6147 1.85059C18.2118 1.51726 15.8046 0.575938 14.6269 0.133271C14.3483 0.0431151 14.0568 0.00254716 13.765 0.0132838C12.2637 0.0132838 9.83064 0.698607 8.14819 0.869273C7.7183 0.903838 7.29505 0.998961 6.89023 1.15196C5.9403 1.53062 5.70476 2.17597 5.31132 2.70397C5.24526 2.81693 5.15821 2.91531 5.05516 2.99356C4.95212 3.07181 4.8351 3.12838 4.71082 3.15996C3.10343 3.75196 -0.691138 8.57864 0.129379 15.232C0.192128 15.8804 0.313443 16.5214 0.491751 17.1466C2.06031 23.5333 7.31214 32.1013 8.60116 34.5333C7.65122 36.7866 5.62452 41.4133 4.97742 45.768C4.87031 46.4259 4.80632 47.0905 4.78588 47.7573C4.70046 49.9706 5.10166 51.9999 6.33891 53.4533C6.97376 54.2133 7.80769 54.7687 8.74093 55.0533C9.80993 55.5279 10.6253 55.2613 11.4121 55.1226C11.7572 55.3408 12.1243 55.5196 12.507 55.6559C12.5924 55.6853 12.6753 55.7146 12.7659 55.7386C13.2305 55.37 13.6526 54.9476 14.0238 54.48C13.8636 54.3457 13.756 54.1563 13.721 53.9466C13.7162 53.8323 13.741 53.7187 13.7928 53.6175C13.8447 53.5162 13.9217 53.4311 14.0161 53.3706C14.1998 53.2293 14.3888 53.0879 14.5648 52.9333C14.6189 52.8823 14.6619 52.82 14.6909 52.7506C14.7199 52.6812 14.7343 52.6062 14.733 52.5306C14.7297 52.5003 14.7199 52.4711 14.7045 52.445C14.6891 52.4189 14.6683 52.3966 14.6437 52.3796C14.6191 52.3626 14.5912 52.3514 14.5619 52.3466C14.5326 52.3418 14.5027 52.3436 14.4742 52.352C14.406 52.366 14.3386 52.3838 14.2723 52.4053C14.3454 52.2392 14.474 52.1058 14.6347 52.0293C14.715 51.9853 14.8051 51.9639 14.8959 51.9671C14.9868 51.9704 15.0753 51.9982 15.1524 52.0479C15.2248 52.0967 15.2768 52.1719 15.2979 52.2583C15.319 52.3448 15.3077 52.4363 15.2662 52.5146C15.1955 52.6982 15.0958 52.8685 14.9712 53.0186C14.9323 53.0693 14.8883 53.1146 14.8469 53.1626C14.7227 53.318 14.6342 53.5003 14.5881 53.696C14.6166 53.6666 14.6399 53.6319 14.6683 53.6026C14.9758 53.3094 15.2662 52.9977 15.538 52.6693C15.5536 52.6506 15.5743 52.6373 15.6079 52.6053C15.6027 52.6379 15.5949 52.67 15.5846 52.7013C15.5199 52.904 15.4552 53.1066 15.375 53.3066C15.2823 53.5423 15.1679 53.7682 15.0333 53.9813C15.2313 53.7872 15.4115 53.5748 15.5717 53.3466C15.6417 53.1961 15.7203 53.0501 15.8072 52.9093C15.8739 52.8084 15.9551 52.7185 16.0479 52.6427C16.1119 52.5755 16.1976 52.5348 16.2887 52.5284C16.3799 52.522 16.4701 52.5503 16.5423 52.6079C16.599 52.6688 16.6382 52.7446 16.6555 52.827C16.6729 52.9093 16.6678 52.9951 16.6407 53.0746C16.6171 53.213 16.5621 53.3436 16.4802 53.4559C16.4802 53.4133 16.4802 53.3893 16.4802 53.3653C16.4802 53.1706 16.3818 53.0986 16.2369 53.1546C16.1476 53.1989 16.068 53.2614 16.003 53.3384C15.9381 53.4155 15.889 53.5054 15.859 53.6026C15.8072 53.7573 15.7606 53.9119 15.7011 54.0666C15.63 54.2839 15.5008 54.4762 15.3284 54.6213C15.1785 54.7294 15.0027 54.7931 14.8201 54.8053C14.6375 54.8175 14.4552 54.7778 14.293 54.6906C13.9254 55.1015 13.5329 55.488 13.1179 55.8479C13.2551 55.8799 13.3897 55.9093 13.5268 55.9333C13.6574 55.8252 13.7811 55.7085 13.897 55.5839C14.0428 55.4179 14.2223 55.287 14.4227 55.2004C14.623 55.1138 14.8395 55.0736 15.0566 55.0826C14.9815 55.176 14.9039 55.2613 14.834 55.3493C14.7641 55.4373 14.702 55.5413 14.6243 55.632C14.5248 55.7558 14.4129 55.8684 14.2904 55.968C14.2665 55.9871 14.2404 56.0032 14.2128 56.016C14.3085 56.016 14.4017 56.0293 14.4975 56.032C14.8558 55.5227 15.3546 55.1361 15.9289 54.9226C16.2654 54.8266 16.5553 55.0239 16.8426 54.9919C17.0544 54.9699 17.2625 54.9189 17.4612 54.84C17.704 54.7119 17.8895 54.4922 17.9789 54.2266C18.0746 53.9813 18.0488 53.8159 17.9271 53.7386C17.8054 53.6613 17.469 53.7387 17.3059 54.0426C17.2817 54.0995 17.2724 54.1619 17.2787 54.2236C17.2851 54.2853 17.3069 54.3442 17.3421 54.3946C17.3965 54.4319 17.4612 54.3946 17.5699 54.2746L17.6139 54.24C17.6095 54.2681 17.6026 54.2958 17.5932 54.3226C17.5497 54.4433 17.4663 54.5444 17.3577 54.6079C17.3134 54.6332 17.2622 54.6427 17.2122 54.635C17.1621 54.6273 17.1159 54.6028 17.0807 54.5653C16.7364 54.336 16.9616 53.8026 17.148 53.5866C17.4068 53.2879 17.9478 53.4106 18.0902 53.4906L18.1393 53.5173C18.2248 53.3813 18.2972 53.2506 18.3723 53.1279C18.3995 53.1857 18.4137 53.2491 18.4137 53.3133C18.4137 53.3775 18.3995 53.4409 18.3723 53.4986C18.3166 53.6559 18.2527 53.8099 18.1808 53.96C18.2921 53.8906 18.3982 53.8213 18.5147 53.7413C18.4353 54.1188 18.2324 54.4568 17.94 54.6986L18.1316 54.744C18.0654 54.8826 17.9715 55.0051 17.8559 55.1035C17.7403 55.2018 17.6058 55.2738 17.4612 55.3146C17.2975 55.3389 17.1315 55.3434 16.9668 55.3279C16.708 55.3279 16.4491 55.2587 16.1618 55.2453C15.7419 55.2534 15.338 55.4129 15.0203 55.696C14.8939 55.7964 14.7776 55.9099 14.6735 56.0346H14.7719C14.8599 56.0346 14.9479 56.0346 15.0307 56.0346C15.4228 55.7945 15.8575 55.6376 16.3094 55.5733C16.4167 55.5564 16.5263 55.5628 16.6311 55.5922C16.7358 55.6216 16.8335 55.6733 16.9176 55.744C17.4399 55.609 17.9441 55.4084 18.4189 55.1466C20.003 54.6133 20.7251 53.6586 21.1781 52.176C21.8106 50.2316 21.9091 48.145 21.4628 46.1466C21.418 46.2098 21.3583 46.2603 21.2894 46.2933C21.2237 46.3244 21.1494 46.3306 21.0797 46.3106C21.01 46.2905 20.9495 46.2456 20.9089 46.1839C20.7916 46.0145 20.687 45.8362 20.5957 45.6506C20.69 45.6369 20.786 45.6428 20.878 45.668C20.9701 45.6932 21.0563 45.7371 21.1315 45.7973C21.2074 45.8697 21.3076 45.909 21.4111 45.9066C21.3645 45.6933 21.3101 45.4773 21.2506 45.2559C21.1718 45.1891 21.0966 45.1179 21.0254 45.0426C20.9374 45.2026 20.8468 45.3786 20.6475 45.4293C20.5854 45.0666 20.456 44.7546 20.1091 44.6906C20.135 44.656 20.1428 44.6373 20.1557 44.632C20.4217 44.4953 20.7185 44.4345 21.015 44.4559C20.9452 44.2453 20.8727 44.032 20.7924 43.8133C20.558 43.8689 20.3286 43.9448 20.1065 44.04C20.2301 43.7847 20.4069 43.5607 20.6242 43.3839C20.1065 42.0773 19.2342 40.296 18.0358 37.96L17.9167 37.9253C17.6579 37.8506 17.513 37.9386 17.5233 38.168C17.5395 38.3154 17.5855 38.4577 17.6581 38.5858C17.7307 38.7139 17.8285 38.825 17.9452 38.912C18.129 39.0613 18.3154 39.2 18.494 39.3573C18.7519 39.564 18.9483 39.8412 19.0608 40.1573C19.1263 40.3685 19.1409 40.5929 19.1035 40.8113C19.0661 41.0296 18.9777 41.2353 18.846 41.4106C18.8671 40.9774 18.7274 40.5522 18.4551 40.2213C18.2739 40.016 18.0979 39.8133 17.909 39.6293C17.5851 39.3292 17.2824 39.0057 17.003 38.6613C16.9311 38.5671 16.8679 38.4662 16.8141 38.36C16.6018 37.9333 16.7054 37.6026 16.9332 37.48C17.0424 37.4292 17.1631 37.4101 17.2821 37.4247C17.4011 37.4392 17.514 37.487 17.6087 37.5626C17.7825 37.6578 17.9296 37.7973 18.0358 37.968C17.5544 37.0293 17.016 36.0026 16.4181 34.88V34.8559C18.1808 31.4186 22.889 22.9146 23.7406 20.432C23.8053 20.248 25.3092 16.6133 25.3092 13.016ZM5.01366 6.10664L5.47698 6.9306L4.67458 7.40795L4.21126 6.58125L5.01366 6.10664ZM3.74017 14.64L3.07496 13.976L3.71947 13.2906L4.38468 13.9546L3.74017 14.64ZM3.97313 12.3786C3.71016 12.3786 3.44977 12.3252 3.20685 12.2214C2.96393 12.1177 2.74325 11.9656 2.55742 11.7739C2.37159 11.5822 2.22427 11.3547 2.12387 11.1043C2.02347 10.8539 1.97197 10.5855 1.97231 10.3146C1.97231 9.76764 2.18302 9.24312 2.55818 8.85612C2.93333 8.46912 3.44224 8.2513 3.97313 8.25059C4.50447 8.25059 5.01404 8.46807 5.38975 8.85515C5.76547 9.24222 5.97654 9.76718 5.97654 10.3146C5.9779 10.5864 5.92707 10.8559 5.82697 11.1074C5.72687 11.3589 5.57948 11.5874 5.39327 11.78C5.20707 11.9726 4.98573 12.1253 4.742 12.2294C4.49827 12.3335 4.23697 12.3869 3.97313 12.3866V12.3786ZM20.6294 46.1093C20.7498 46.1889 20.864 46.2781 20.971 46.376C21.0798 46.488 21.1574 46.6266 21.3696 46.568C21.2428 46.8346 21.0073 46.9466 20.852 46.8533C20.7522 46.764 20.6785 46.6478 20.6392 46.5178C20.5999 46.3879 20.5965 46.2491 20.6294 46.1173V46.1093ZM20.5388 46.76C20.7194 46.8677 20.8522 47.0437 20.9089 47.2506C20.9244 47.3279 20.8908 47.3866 20.7924 47.4373C20.6941 47.488 20.6475 47.4773 20.6113 47.4186C20.514 47.2171 20.4884 46.9869 20.5388 46.768V46.76ZM7.7884 18.8533C7.44607 17.7885 7.17962 16.6994 6.99118 15.5946C6.99217 15.5902 6.99217 15.5856 6.99118 15.5813C6.39585 12.5839 6.64693 10.8213 7.7677 8.3946C7.79099 8.34393 7.81688 8.29331 7.84017 8.23998C8.34232 7.90664 10.0662 7.11995 12.4164 7.74662C13.2918 7.96636 14.0979 8.41365 14.7577 9.04577C15.4175 9.67789 15.9089 10.4737 16.1851 11.3573C17.4638 15.0666 14.7356 22.2906 12.3025 27.5386C10.4959 24.4613 8.84705 21.6026 7.7884 18.8613V18.8533ZM14.2878 36.6506C14.135 36.4971 14.0319 36.2988 13.9928 36.0826C13.9917 36.0707 13.9929 36.0587 13.9964 36.0473C13.9999 36.0359 14.0055 36.0253 14.0129 36.0161C14.0204 36.0069 14.0295 35.9993 14.0399 35.9938C14.0502 35.9883 14.0614 35.9849 14.073 35.9839C14.2847 35.9915 14.4856 36.0822 14.6347 36.2373C14.8262 36.4053 15.0333 36.5733 15.2093 36.7546C15.1756 36.7013 15.142 36.6479 15.1058 36.5973C14.8989 36.306 14.6249 36.0723 14.3085 35.9173C14.1508 35.8383 14.0193 35.7131 13.9306 35.5573C13.9152 35.5291 13.9088 35.4966 13.9126 35.4645C13.9163 35.4323 13.9299 35.4023 13.9513 35.3787C14.0161 35.3173 14.2102 35.4 14.3733 35.5626C14.5363 35.7253 14.6321 35.8613 14.7589 36.0266C14.909 36.0106 15.0436 36.0826 15.1989 36.2933C15.2987 36.4471 15.3853 36.6095 15.4578 36.7787C15.4894 36.8484 15.5374 36.9089 15.5976 36.9546C15.6796 37.0258 15.7496 37.1105 15.8046 37.2053C15.8615 37.3153 15.8913 37.438 15.8913 37.5626C15.8913 37.6873 15.8615 37.8099 15.8046 37.9199C15.7765 37.9593 15.7404 37.9918 15.6988 38.0153C15.6573 38.0388 15.6112 38.0527 15.5639 38.0559C15.432 38.0665 15.2996 38.0436 15.1782 37.9893C15.1033 37.9579 15.0358 37.9102 14.9804 37.8494C14.925 37.7887 14.883 37.7163 14.8573 37.6373C14.8303 37.5901 14.7931 37.5499 14.7486 37.5199C14.6191 37.4266 14.4897 37.3546 14.3603 37.2533C14.1351 37.0853 14.0626 36.9573 14.0601 36.7653C13.9022 36.648 13.7443 36.5466 13.5916 36.4266C13.4388 36.3066 13.3327 36.1173 13.3845 36.0293C13.5476 35.7946 13.9229 36.2666 14.0083 36.4106C14.1758 36.6871 14.3866 36.9331 14.6321 37.1386L14.7356 37.224C14.5803 37.0506 14.4328 36.8426 14.2878 36.6586V36.6506ZM14.7046 35.696C14.5085 35.4708 14.3627 35.2041 14.2775 34.9146C14.2775 34.8213 14.3111 34.728 14.4431 34.768C14.5221 34.8095 14.5911 34.8687 14.645 34.9413C14.7537 35.0799 14.7641 35.2239 14.733 35.2639C14.6846 35.3252 14.6559 35.4005 14.6508 35.4793C14.6457 35.5581 14.6645 35.6366 14.7046 35.704V35.696ZM17.4172 42.0613C17.2612 42.015 17.1202 41.9265 17.0087 41.8051C16.8971 41.6836 16.8192 41.5336 16.783 41.3706C16.6795 41.0426 16.5811 40.7119 16.4569 40.3893C16.4153 40.2873 16.3525 40.196 16.2729 40.1218C16.1933 40.0476 16.0988 39.9924 15.9962 39.96C15.9552 39.9507 15.9128 39.9504 15.8717 39.9591C15.8306 39.9678 15.7917 39.9853 15.7575 40.0104C15.7234 40.0355 15.6947 40.0678 15.6734 40.105C15.6521 40.1423 15.6386 40.1837 15.6338 40.2266C15.6183 40.32 15.6183 40.4266 15.6105 40.5386C15.4204 40.359 15.3022 40.1126 15.2792 39.8479C15.2553 39.715 15.2667 39.5779 15.3123 39.4512C15.3579 39.3244 15.4359 39.2127 15.538 39.1279C15.6377 39.0474 15.7633 39.0088 15.8896 39.0197C16.0158 39.0305 16.1334 39.0901 16.2188 39.1866C16.4304 39.376 16.612 39.5982 16.7572 39.8453C16.9664 40.2284 17.1481 40.6268 17.3007 41.0373C17.4063 41.3464 17.6061 41.612 17.8702 41.7946C17.953 41.8426 18.0332 41.896 18.129 41.96C17.91 42.0764 17.6597 42.1148 17.4172 42.0693V42.0613ZM18.9702 43.232C19.0479 43.472 19.1514 43.696 19.2446 43.9466C19.1721 43.976 19.0789 44.0239 18.9857 44.0559C18.9211 44.0858 18.8514 44.102 18.7806 44.1037C18.7098 44.1053 18.6393 44.0923 18.5735 44.0654C18.5076 44.0386 18.4477 43.9984 18.3971 43.9473C18.3466 43.8962 18.3064 43.8353 18.2791 43.768C18.1109 43.312 17.9556 42.8319 17.7614 42.3386C17.8883 42.3519 17.9892 42.36 18.0876 42.376C18.2992 42.4186 18.4947 42.5225 18.651 42.6755C18.8074 42.8286 18.9181 43.0244 18.9702 43.24V43.232ZM15.0126 40.7493C15.3171 40.9086 15.5699 41.1561 15.7399 41.4613C15.7688 41.5523 15.778 41.6489 15.7667 41.7439C15.7554 41.839 15.7239 41.9304 15.6745 42.0116C15.6251 42.0928 15.559 42.1617 15.4808 42.2136C15.4027 42.2655 15.3144 42.2991 15.2222 42.312C15.595 41.7813 15.4267 41.248 15.0048 40.7573L15.0126 40.7493ZM13.5553 38.2746C13.5931 38.3569 13.6535 38.4259 13.7289 38.4733C13.8043 38.5207 13.8915 38.5443 13.9798 38.5413C14.0652 38.528 14.1066 38.456 14.0782 38.3493C14.0527 38.2611 14.0054 38.1811 13.941 38.1173C13.8892 38.0746 13.8142 38.0906 13.7495 38.08C13.7495 37.952 13.7676 37.9199 13.8659 37.9226C13.9707 37.9458 14.0667 37.9997 14.1425 38.0777C14.2182 38.1558 14.2705 38.2547 14.293 38.3626C14.3154 38.4416 14.3085 38.5263 14.2736 38.6003C14.2386 38.6742 14.1782 38.7321 14.1041 38.7626C14.0072 38.7867 13.9055 38.7793 13.8129 38.7416C13.7202 38.7039 13.6411 38.6377 13.5864 38.552C13.5312 38.4659 13.4577 38.3938 13.3715 38.3413C13.34 38.3277 13.3061 38.3207 13.2719 38.3207C13.2377 38.3207 13.2038 38.3277 13.1722 38.3413C13.1425 38.2694 13.1383 38.189 13.1606 38.1143C13.1829 38.0396 13.2301 37.9755 13.2939 37.9333L13.1334 37.8213C12.9885 37.7253 12.9755 37.6906 13.0635 37.6026C13.1023 37.5598 13.1489 37.5254 13.2007 37.5013C13.2781 37.4781 13.3568 37.4594 13.4363 37.4453C13.3698 37.3797 13.31 37.3073 13.2577 37.2293C13.2882 37.2082 13.3213 37.1912 13.356 37.1787C13.4264 37.1658 13.4985 37.1674 13.5683 37.1834C13.638 37.1994 13.704 37.2295 13.7624 37.2719C14.0212 37.4346 14.2801 37.6106 14.5182 37.7866C14.9789 38.1146 15.419 38.4266 15.8486 38.2933C15.8504 38.3101 15.8504 38.3271 15.8486 38.344C15.8486 38.344 15.8305 38.36 15.8253 38.368C15.7898 38.4284 15.743 38.4809 15.6876 38.5225C15.6322 38.5642 15.5693 38.594 15.5026 38.6104C15.4359 38.6268 15.3667 38.6293 15.299 38.6179C15.2313 38.6065 15.1665 38.5814 15.1084 38.544C14.8055 38.36 14.4405 37.8933 14.1299 37.7146C14.0614 37.6685 13.9837 37.6391 13.9025 37.6285C13.8214 37.6179 13.739 37.6263 13.6614 37.6533C13.595 37.6928 13.5419 37.7523 13.509 37.8238C13.4762 37.8952 13.4653 37.9753 13.4777 38.0533C13.4911 38.1336 13.5174 38.2111 13.5553 38.2826V38.2746ZM12.8979 36.7866C12.8979 36.3653 13.5139 36.6479 13.853 36.8666C13.7576 36.8541 13.6611 36.8541 13.5657 36.8666C13.4673 36.9039 13.4052 36.9813 13.3068 37.0213C13.2085 37.0613 12.9005 37.0186 12.8979 36.7946V36.7866ZM13.5165 35.552C13.4553 35.5484 13.3979 35.5207 13.356 35.4746C13.4104 35.5413 13.444 35.5973 13.4388 35.6266C13.4207 35.7146 13.3042 35.816 13.0791 35.6266C12.9703 35.5333 12.859 35.4799 12.7452 35.3919C12.7366 35.3358 12.7475 35.2784 12.7759 35.2296C12.8043 35.1809 12.8484 35.1439 12.9005 35.1253C12.7385 34.9892 12.598 34.8282 12.4837 34.6479C12.393 34.5171 12.3392 34.363 12.3284 34.2026C12.3284 34.1599 12.3724 34.1493 12.4164 34.1653C12.5703 34.2424 12.7016 34.3602 12.7969 34.5066C12.9215 34.6742 13.0315 34.8526 13.1256 35.04C13.1339 34.979 13.1624 34.9228 13.2063 34.881C13.2501 34.8392 13.3067 34.8143 13.3664 34.8106C13.3906 34.9016 13.4208 34.9907 13.457 35.0773C13.4958 35.1626 13.5683 35.256 13.6071 35.344C13.6847 35.4879 13.6149 35.5466 13.5165 35.56V35.552ZM8.33973 52.2826C6.83329 52.0293 6.21726 50.4533 6.13443 50.1999C5.50027 48.2346 5.63228 44.3333 9.03601 35.4853C9.39061 36.2853 9.72451 37.0266 9.87205 37.3333C11.8392 41.4399 12.3569 45.3839 12.3155 47.4533C12.2767 49.4586 10.9566 52.7333 8.34232 52.2906L8.33973 52.2826ZM11.4691 52.24C11.6839 52.2773 11.7926 52.4479 11.9635 52.5279C11.9635 52.4906 11.9635 52.464 11.9842 52.416C12.129 52.5093 12.2524 52.6339 12.3458 52.7813C12.4393 52.9286 12.5004 53.0951 12.5251 53.2693C12.551 53.5359 12.3957 54.008 12.2378 54.088C12.2065 53.7567 12.0919 53.4396 11.9054 53.1679C11.7188 52.8962 11.4667 52.6793 11.174 52.5386C11.174 52.5386 11.4328 52.5386 11.5674 52.5386C11.5364 52.4559 11.5053 52.3599 11.4717 52.2479L11.4691 52.24ZM10.9359 55.04L11.1248 54.88C11.0366 54.81 10.9551 54.7315 10.8815 54.6453C11.0187 54.6613 11.1559 54.6693 11.2983 54.6773L11.2698 54.5893C11.9428 54.6879 12.4967 55.232 12.564 55.6346C12.0774 55.3306 11.5933 55.0133 10.9385 55.0479L10.9359 55.04ZM13.1049 54.9333C12.9703 55.0373 12.8461 55.1573 12.7141 55.2746C12.6779 55.2346 12.6287 55.1813 12.5847 55.1226C12.5517 55.0863 12.5261 55.0435 12.5094 54.9969C12.4927 54.9502 12.4852 54.9006 12.4874 54.8509C12.4896 54.8012 12.5014 54.7525 12.5221 54.7076C12.5428 54.6626 12.572 54.6224 12.608 54.5893C12.8668 54.3759 13.1256 54.1653 13.3845 53.9199C13.4026 54.0053 13.4233 54.0746 13.4337 54.144C13.4592 54.2951 13.4421 54.4506 13.3843 54.5919C13.3264 54.7333 13.2304 54.8546 13.1075 54.9413L13.1049 54.9333ZM13.576 52.2186C13.3508 52.3733 12.8565 52.192 12.828 51.968C12.8306 51.8944 12.8577 51.8239 12.9049 51.7685C12.952 51.7131 13.0163 51.6762 13.0868 51.6639C13.0868 51.6773 13.0868 51.6906 13.0868 51.7013C13.0669 51.7312 13.0579 51.7673 13.0612 51.8033C13.0645 51.8394 13.08 51.8731 13.1049 51.8986C13.1356 51.921 13.1722 51.933 13.2098 51.933C13.2473 51.933 13.284 51.921 13.3146 51.8986C13.3755 51.8669 13.4275 51.8196 13.4656 51.7612C13.5036 51.7028 13.5265 51.6354 13.532 51.5653C13.5302 51.4738 13.4966 51.386 13.4372 51.318C13.3778 51.2499 13.2966 51.2061 13.2085 51.1946C13.066 51.1766 12.9222 51.2155 12.8067 51.3033C12.6912 51.391 12.6127 51.5211 12.5873 51.6666C12.5643 51.8795 12.6127 52.094 12.7245 52.2746C12.8409 52.5066 13.1386 52.8906 13.224 53.1306C13.4544 53.7359 12.9652 54.3333 12.1887 54.5306C12.0877 54.5573 11.8858 54.6106 11.8625 54.496C11.8625 54.48 11.8884 54.3946 11.8988 54.3946C12.1458 54.4072 12.3885 54.3245 12.5795 54.1626C12.6973 54.0743 12.7935 53.9589 12.8605 53.8256C12.9274 53.6923 12.9633 53.5447 12.9652 53.3946C12.9241 53.0925 12.7898 52.812 12.5821 52.5946C12.4133 52.3836 12.2552 52.1638 12.1084 51.9359C12.0266 51.8236 11.9868 51.6847 11.9963 51.5447C12.0058 51.4046 12.064 51.2728 12.1602 51.1733L12.3414 51.3359C12.3823 51.2037 12.4298 51.0738 12.4837 50.9466C12.5119 50.8819 12.5537 50.8244 12.6061 50.7783C12.6585 50.7322 12.7201 50.6986 12.7866 50.68C12.8228 50.808 12.8565 50.9253 12.8875 51.04C13.0402 50.8 13.1955 50.6293 13.4777 50.6479C13.4388 50.7626 13.4 50.8666 13.3534 50.9893C13.375 51.0011 13.3975 51.011 13.4207 51.0186C13.5246 51.049 13.6183 51.1085 13.6914 51.1904C13.7645 51.2723 13.8141 51.3734 13.8349 51.4826C13.8734 51.6186 13.8694 51.7637 13.8234 51.8973C13.7774 52.0308 13.6918 52.1461 13.5786 52.2266L13.576 52.2186ZM13.268 42.7626L13.5812 42.624C13.445 42.4941 13.3154 42.357 13.1929 42.2133C13.1265 42.1387 13.0776 42.0495 13.0498 41.9524C13.0219 41.8554 13.016 41.753 13.0325 41.6533L13.5501 41.7386C13.3457 41.3946 13.2214 41.0933 13.4181 40.7333C13.5372 40.8559 13.6433 40.968 13.7676 41.1013C13.7909 41.08 13.8167 41.0586 13.8426 41.032C13.9454 40.9107 14.0852 40.829 14.2391 40.8004C14.3929 40.7718 14.5516 40.798 14.689 40.8746C14.8361 40.9491 14.9615 41.0623 15.0524 41.2028C15.1433 41.3433 15.1966 41.5061 15.2067 41.6746C15.2611 42.0613 14.9634 42.4533 14.6657 42.3573C14.5782 42.312 14.5081 42.2376 14.4668 42.1461C14.4254 42.0546 14.4153 41.9514 14.438 41.8533C14.4521 41.8634 14.4651 41.875 14.4768 41.888C14.5026 41.9322 14.5426 41.9656 14.5899 41.9827C14.6371 41.9997 14.6887 41.9992 14.7356 41.9813C14.7824 41.9567 14.8209 41.918 14.8459 41.8704C14.8708 41.8228 14.8811 41.7684 14.8754 41.7146C14.8719 41.6158 14.8439 41.5196 14.7941 41.4351C14.7442 41.3506 14.6742 41.2807 14.5907 41.232C14.4766 41.1777 14.3472 41.1681 14.2267 41.2049C14.1062 41.2417 14.0028 41.3224 13.9358 41.432C13.8272 41.6069 13.7889 41.8185 13.829 42.0221C13.8691 42.2256 13.9844 42.4051 14.1506 42.5226C14.4011 42.6822 14.6975 42.7473 14.9893 42.7066C15.3424 42.6801 15.6966 42.6721 16.0505 42.6826C16.2765 42.6935 16.4972 42.7561 16.6968 42.866C16.8963 42.9758 17.0695 43.13 17.2039 43.3175C17.3383 43.505 17.4304 43.7209 17.4735 43.9497C17.5167 44.1784 17.5098 44.4143 17.4534 44.64C17.425 44.7866 17.2826 45.008 17.236 45.152C17.2049 45.1333 17.1273 45.0587 17.1325 45.0453C17.2959 44.7316 17.3385 44.3659 17.2515 44.0213C17.2121 43.8137 17.126 43.6185 17.0001 43.4513C16.8743 43.2841 16.7122 43.1496 16.5268 43.0586C16.1256 42.8853 15.7296 42.9893 15.318 43.0826C14.9555 43.1769 14.5883 43.2508 14.2179 43.304C14.024 43.3506 13.8202 43.3219 13.6455 43.2235C13.4707 43.1251 13.3373 42.964 13.2706 42.7706L13.268 42.7626ZM14.4923 44.9253C14.5488 44.7379 14.6144 44.5538 14.689 44.3733H14.2309C14.3836 44.0853 14.6631 44.016 14.8495 43.8133L14.7097 43.7279C14.9049 43.5681 15.1314 43.4537 15.3735 43.3925C15.6157 43.3312 15.8678 43.3247 16.1126 43.3733C16.4673 43.456 17.0445 43.9066 17.0755 44.1733C16.1592 44.0293 15.3542 44.0799 14.4871 44.9333L14.4923 44.9253ZM17.9323 51.0586C17.8753 51.0746 17.8313 51.0799 17.7951 51.1306C17.7578 51.2006 17.7349 51.2778 17.7278 51.3573C17.7145 51.4497 17.6792 51.5373 17.625 51.6122C17.5708 51.6872 17.4994 51.7471 17.4172 51.7866C17.3569 51.7928 17.2964 51.777 17.2462 51.7419C17.1961 51.7068 17.1595 51.6546 17.1428 51.5946C17.1246 51.4954 17.1304 51.3932 17.1598 51.2969C17.1891 51.2006 17.2411 51.1133 17.3111 51.0426C17.3758 51.0027 17.4042 51.016 17.4482 51.1013C17.4094 51.136 17.3525 51.1546 17.3344 51.2026C17.3149 51.2705 17.3149 51.3427 17.3344 51.4106C17.3551 51.4933 17.4094 51.5253 17.4715 51.5013C17.5326 51.4685 17.5828 51.4178 17.6159 51.3556C17.6491 51.2935 17.6637 51.2226 17.6579 51.152C17.6554 51.0951 17.6467 51.0388 17.632 50.9839C17.6106 50.9268 17.573 50.8776 17.5241 50.8429C17.4751 50.8082 17.4171 50.7895 17.3577 50.7893C17.2961 50.8017 17.238 50.8283 17.1878 50.8671C17.1376 50.9059 17.0966 50.9559 17.0678 51.0133C16.9228 51.2533 16.8477 51.7066 16.7131 51.9493C16.5786 52.192 16.3663 52.1973 16.1178 52.1066C16.0712 52.088 15.8331 52.0613 15.7425 52.0426C15.5328 52 15.3542 51.8986 15.3439 51.64C15.3335 51.3813 15.4733 50.9226 15.4526 50.6427C15.4525 50.5784 15.4383 50.515 15.4109 50.4572C15.3836 50.3995 15.3438 50.3489 15.2947 50.3093C15.2413 50.2818 15.181 50.2716 15.1218 50.2802C15.0627 50.2888 15.0074 50.3157 14.9634 50.3573C14.9242 50.3973 14.891 50.4431 14.865 50.4933C14.8271 50.5517 14.8068 50.6204 14.8068 50.6906C14.8068 50.7609 14.8271 50.8296 14.865 50.888C14.909 50.9386 14.9738 50.9359 15.0281 50.8719C15.0731 50.8189 15.1035 50.7545 15.1161 50.6853C15.1161 50.632 15.0799 50.5893 15.0592 50.5413C15.1368 50.4853 15.1679 50.4853 15.2067 50.5413C15.2385 50.6383 15.247 50.7418 15.2317 50.843C15.2164 50.9442 15.1776 51.0401 15.1187 51.1226C15.0773 51.1689 15.0213 51.1985 14.9606 51.2063C14.9 51.2141 14.8386 51.1996 14.7874 51.1653C14.7306 51.0911 14.6924 51.0036 14.6761 50.9106C14.6599 50.8176 14.6661 50.7219 14.6942 50.632C14.7244 50.5586 14.7393 50.4796 14.7382 50.3999C14.7382 50.3386 14.6916 50.3119 14.6476 50.2719C14.6816 50.2234 14.7305 50.1881 14.7864 50.1716C14.8422 50.1552 14.9019 50.1586 14.9556 50.1813C14.9556 50.1199 14.9556 50.0746 14.9556 50.0266C14.9556 49.8906 14.9712 49.8666 15.0644 49.888C15.1075 49.896 15.1487 49.9122 15.186 49.9359C15.2341 49.9768 15.2791 50.0214 15.3206 50.0693C15.3206 50.0293 15.3206 50.0079 15.3361 49.9893C15.3517 49.9706 15.3672 49.9013 15.3801 49.8586C15.4071 49.8701 15.4323 49.8854 15.4552 49.904C15.5413 49.9943 15.6045 50.1051 15.639 50.2266C15.6856 50.3733 15.7762 50.5466 15.8279 50.7173C15.8254 50.6764 15.8254 50.6354 15.8279 50.5946C15.8393 50.4888 15.8741 50.3871 15.9298 50.2973C15.9854 50.2076 16.0604 50.1323 16.1489 50.0773C16.1529 50.0125 16.1529 49.9474 16.1489 49.8826C16.1336 49.7989 16.1137 49.7161 16.0893 49.6346C16.1375 49.6057 16.1939 49.5946 16.249 49.6033C16.3042 49.6121 16.3547 49.6401 16.3922 49.6826C16.3765 49.491 16.3765 49.2983 16.3922 49.1066C16.3943 48.942 16.4389 48.7809 16.5216 48.64C16.5475 48.608 16.5915 48.5893 16.6096 48.624C16.6812 48.7537 16.7162 48.9015 16.7106 49.0506C16.7102 49.2505 16.6806 49.4492 16.6226 49.64C16.6728 49.6255 16.7264 49.6298 16.7739 49.6523C16.8213 49.6748 16.8594 49.7139 16.8814 49.7626C16.8348 49.8906 16.7753 49.9919 16.7364 50.1226C16.7298 50.1465 16.7212 50.1697 16.7106 50.1919L16.7934 50.3333C16.8685 50.4239 16.8814 50.5439 16.7934 50.7386C16.7727 50.7932 16.7563 50.8494 16.7442 50.9066C16.8399 50.7506 16.9628 50.6141 17.1066 50.504C17.1907 50.4404 17.2819 50.3876 17.3784 50.3466C17.4068 50.3439 17.4354 50.3439 17.4638 50.3466C17.4638 50.392 17.4482 50.4373 17.4431 50.4826C17.4375 50.5088 17.4306 50.5346 17.4224 50.56C17.4816 50.5375 17.5421 50.5188 17.6036 50.504C17.6473 50.4987 17.6917 50.5042 17.733 50.5199C17.8236 50.5413 17.8287 50.5706 17.7666 50.6933L17.6993 50.8293C17.7951 50.88 17.9167 50.8506 17.9582 51.032C17.9426 51.0506 17.94 51.0613 17.9349 51.0613L17.9323 51.0586ZM17.6346 46.5253C17.5932 46.4159 17.5544 46.3066 17.5078 46.1839C17.3739 46.2768 17.2307 46.3546 17.0807 46.416C17.1661 46.2293 17.2412 46.0427 17.3162 45.8453H17.1868C17.6398 44.9467 18.6311 44.4213 19.2032 44.5253C18.5561 45.0533 17.9116 45.5866 17.6372 46.5199L17.6346 46.5253ZM18.8537 46.6453C18.7657 46.5521 18.7081 46.4328 18.6891 46.3042C18.67 46.1756 18.6905 46.044 18.7476 45.9279C18.8701 45.6457 19.0586 45.3992 19.2964 45.2106C19.3999 45.1173 19.5112 45.0373 19.6121 44.944L19.6432 44.9706C19.5666 45.1169 19.5296 45.2817 19.536 45.4477C19.5424 45.6138 19.5919 45.775 19.6794 45.9146L19.1799 45.9466C19.2498 46.2133 19.0815 46.4293 18.8563 46.64L18.8537 46.6453ZM19.4698 47.0453C19.4058 47.0612 19.3386 47.0576 19.2766 47.0348C19.2145 47.0121 19.1602 46.9713 19.1203 46.9173C19.1997 46.9015 19.2725 46.8612 19.3289 46.8016C19.3854 46.7421 19.4228 46.666 19.4361 46.5839C19.498 46.3685 19.6162 46.1748 19.7778 46.024C19.8111 46.1091 19.8312 46.1991 19.8373 46.2906C19.8656 46.4724 19.8384 46.6587 19.7597 46.824C19.7308 46.8801 19.69 46.9287 19.6402 46.9661C19.5904 47.0035 19.533 47.0288 19.4724 47.04L19.4698 47.0453ZM20.1971 47.1359C20.1463 47.1848 20.084 47.2191 20.0163 47.2355C19.9487 47.2519 19.878 47.2497 19.8114 47.2293C19.8674 47.1769 19.9095 47.1108 19.9339 47.0371C19.9584 46.9634 19.9643 46.8846 19.9512 46.8079C19.9512 46.6426 19.9745 46.4639 19.9797 46.2746C20.0788 46.3295 20.1632 46.4089 20.2251 46.5057C20.287 46.6026 20.3245 46.7138 20.3343 46.8293C20.3381 46.8871 20.3278 46.945 20.3043 46.9976C20.2807 47.0502 20.2448 47.096 20.1997 47.1306L20.1971 47.1359ZM19.4051 41.0613C19.4931 41.2106 19.5707 41.36 19.6639 41.5013C19.7571 41.6426 19.8606 41.7679 19.9435 41.9306C20.0629 42.1301 20.1618 42.3419 20.2385 42.5626C20.2933 42.7597 20.2817 42.97 20.2055 43.1594C20.1294 43.3487 19.9932 43.5059 19.8192 43.6053C19.7388 43.3755 19.6428 43.1518 19.5319 42.9359C19.3784 42.6523 19.2874 42.3372 19.2655 42.0132C19.2436 41.6892 19.2912 41.3642 19.4051 41.0613ZM17.3732 39.4133C17.7818 39.7572 18.1318 40.1691 18.4085 40.632C18.4645 40.7159 18.5024 40.8112 18.5198 40.9114C18.5372 41.0116 18.5337 41.1146 18.5095 41.2133C18.492 41.2611 18.4861 41.3126 18.4924 41.3633C18.4987 41.414 18.517 41.4623 18.5457 41.504C19.0982 42.5406 19.5708 43.6203 19.959 44.7333C19.9849 44.8079 20.0625 44.8506 20.1143 44.9066C20.1661 44.9626 20.2981 45.0506 20.3291 45.152C20.3725 45.3261 20.3917 45.5056 20.3861 45.6853C20.3846 45.8877 20.3717 46.0898 20.3472 46.2906C20.2541 46.2906 20.0133 45.9573 19.8839 45.7866C19.7882 45.6863 19.7264 45.557 19.7077 45.4176C19.6891 45.2783 19.7145 45.1365 19.7804 45.0133C19.7944 44.9728 19.7944 44.9285 19.7804 44.888C19.4025 43.7498 18.9306 42.647 18.3697 41.5919C18.3558 41.5587 18.3337 41.5299 18.3055 41.5084C18.2773 41.4869 18.2441 41.4734 18.2092 41.4693C18.0993 41.4627 17.9954 41.4153 17.9167 41.3359C17.7331 41.0885 17.5703 40.8253 17.4301 40.5493C17.1813 39.9757 16.9004 39.4174 16.5889 38.8773C16.5678 38.836 16.5496 38.7933 16.5346 38.7493C16.5915 38.7866 16.6251 38.8026 16.6536 38.8266C16.8943 39.0133 17.1325 39.2053 17.3628 39.4133H17.3732ZM16.5164 35.7093C16.5942 35.7698 16.6522 35.8531 16.6827 35.9484C16.7132 36.0437 16.7148 36.1464 16.6873 36.2426C16.6533 36.317 16.5935 36.3755 16.5197 36.4066C16.4459 36.4377 16.3634 36.4391 16.2887 36.4106C16.1856 36.3812 16.0929 36.3218 16.0217 36.2395C15.9506 36.1572 15.904 36.0555 15.8875 35.9466C15.8875 35.8426 15.9263 35.824 16.0505 35.8346C16.0505 35.904 16.035 35.9786 16.0738 36.0346C16.1305 36.1053 16.2048 36.1587 16.2887 36.1893C16.3896 36.2266 16.4621 36.1893 16.4828 36.1013C16.4907 36.01 16.4723 35.9183 16.43 35.8377C16.3876 35.7571 16.3232 35.691 16.2447 35.6479C16.1839 35.6077 16.1175 35.5772 16.0479 35.5573C15.9733 35.5396 15.8953 35.5457 15.8241 35.5747C15.7529 35.6038 15.6919 35.6544 15.6493 35.7199C15.6168 35.7976 15.6026 35.8821 15.608 35.9665C15.6134 36.0509 15.6382 36.1327 15.6804 36.2053C15.8305 36.5359 16.2602 36.9413 16.4207 37.2719C16.4828 37.3987 16.4948 37.5453 16.4543 37.6811C16.4138 37.8168 16.3238 37.9311 16.2032 37.9999C16.2032 37.9999 16.1877 38.0186 16.1774 38.0213H16.1282C16.2835 37.5893 16.0091 37.1146 15.7244 36.6213C15.5691 36.3546 15.4138 36.088 15.274 35.8213C15.2353 35.7591 15.2096 35.6893 15.1984 35.6163C15.1873 35.5433 15.191 35.4687 15.2093 35.3973C15.2233 35.3621 15.2416 35.329 15.2637 35.2986C15.3344 35.3596 15.401 35.4256 15.463 35.496C15.4666 35.4248 15.484 35.3551 15.5143 35.291C15.5445 35.2268 15.5869 35.1695 15.639 35.1226C15.7322 35.0453 15.7606 35.0533 15.846 35.2079C15.8745 35.2613 15.9056 35.3146 15.9444 35.3813C16.0635 35.3093 16.1204 35.1546 16.3327 35.2479C16.3327 35.2666 16.3482 35.2773 16.3327 35.2826C16.3161 35.3137 16.3058 35.3479 16.3022 35.3831C16.2987 35.4184 16.302 35.454 16.312 35.488C16.3621 35.5741 16.428 35.6493 16.5061 35.7093H16.5164ZM23.2126 13.8719C22.7674 21.1173 17.6243 28.8959 15.2559 32.7839C14.5415 31.6239 13.8866 30.3333 13.0325 28.8506C17.7925 17.5333 17.6916 13.1893 16.9539 11.08C16.6601 10.2266 16.1958 9.44622 15.5911 8.7892C14.9864 8.13218 14.2546 7.61311 13.4431 7.26556C12.6316 6.91801 11.7583 6.74972 10.8797 6.77149C10.0011 6.79325 9.1367 7.00459 8.34232 7.39193C8.81599 6.55993 10.3173 4.82927 11.9971 4.1306C13.4518 3.52527 14.3525 4.25864 14.7512 4.43464C15.6493 4.83197 16.444 5.17331 17.3706 5.17598C18.3775 5.17598 18.8071 4.59194 19.0712 4.40528C19.6978 4.8604 20.2597 5.40343 20.7407 6.01862C22.5914 8.24796 23.3989 10.6506 23.2022 13.8719H23.2126ZM4.36656 11.3226C4.24056 11.3214 4.11846 11.3676 4.02316 11.4525C3.92786 11.5375 3.86589 11.6553 3.84888 11.7839C3.8903 11.7839 3.93171 11.7973 3.97572 11.7973C4.26321 11.7941 4.54299 11.7011 4.77812 11.5306C4.72857 11.4643 4.66456 11.4109 4.59126 11.3747C4.51797 11.3386 4.43744 11.3207 4.35621 11.3226H4.36656ZM4.95412 10.4266C4.95411 10.5348 4.98604 10.6405 5.04568 10.7296C5.10532 10.8186 5.18984 10.8869 5.28803 10.9253C5.37136 10.7359 5.41459 10.5305 5.41486 10.3226C5.41313 10.1823 5.39133 10.0431 5.35015 9.90931C5.23552 9.93531 5.13287 10.0007 5.05903 10.0947C4.98519 10.1887 4.94455 10.3057 4.94377 10.4266H4.95412ZM3.91877 8.85593C3.92011 8.96245 3.95239 9.06613 4.01144 9.15358C4.07049 9.24104 4.15361 9.30828 4.25008 9.34662C4.35621 9.3875 4.47243 9.39134 4.5809 9.35762C4.68938 9.3239 4.78412 9.25449 4.85059 9.15996C4.60244 8.95921 4.29641 8.84937 3.98089 8.84792L3.91877 8.85593Z" fill="#550065"/>
<path d="M7.60402 34.2668L6.88704 34.3841L7.34518 33.8001L7.20282 33.5468L6.33054 34.0614L6.42113 34.2268L7.08893 33.8321L6.57125 34.4774L6.64373 34.6134L7.45389 34.4694L6.78868 34.8641L6.87927 35.0295L7.75155 34.5121L7.60402 34.2668ZM6.94916 33.4428L7.09669 33.3575L6.69809 32.6401L6.55055 32.7254L6.70585 32.9921L5.97852 33.4215L6.06911 33.5841L6.79644 33.1548L6.94916 33.4428Z" fill="#550065"/>
</g>
<defs>
<clipPath id="clip0_814_2615">
<rect width="120" height="56" fill="white"/>
</clipPath>
</defs>
</svg>
